# xmcd
#
# Track frame offsets:
#	150
#	20201
#	34175
#	52648
#	66746
#	81439
#	92852
#	108297
#	123225
#	141215
#	157012
#	174127
#	188633
#	203203
#	222598
#	235883
#
# Disc length: 3368 seconds
#
# Revision: 0
# Processed by: cddbd v1.5.2PL0 Copyright (c) Steve Scherf et al.
# Submitted via: EasyCDDAExtractor 11.9.9.666
#
DISCID=e50d2610
DTITLE=Sergio Reis - Coração Estradeiro
DYEAR=2008
DGENRE=Country
TTITLE0=Coração Estradeiro
TTITLE1=Bando de Vagabundo
TTITLE2=Terra Genuína
TTITLE3=Nóis Envorve Mais não Casa
TTITLE4=Triste Berrante
TTITLE5=Hoje Ninguém Fica Só
TTITLE6=Água de Rio
TTITLE7=Vida Dura
TTITLE8=Quando uma Sanfona Toca
TTITLE9=Tá Sobrando Muié
TTITLE10=Amor Eterno
TTITLE11=Óh... Viola Iluminada
TTITLE12=Meu Legado
TTITLE13=Herói sem Medalha
TTITLE14=Quem eu sou (Bonus)
TTITLE15=Comitiva Esperança (Bonus)
EXTD=
EXTT0=
EXTT1=
EXTT2=
EXTT3=
EXTT4=
EXTT5=
EXTT6=
EXTT7=
EXTT8=
EXTT9=
EXTT10=
EXTT11=
EXTT12=
EXTT13=
EXTT14=
EXTT15=
PLAYORDER=
